<?xml version="1.0" standalone="no"?>
<!DOCTYPE svg PUBLIC "-//W3C//DTD SVG 20010904//EN"
 "http://www.w3.org/TR/2001/REC-SVG-20010904/DTD/svg10.dtd">
<svg version="1.0" xmlns="http://www.w3.org/2000/svg"
 width="797.000000pt" height="797.000000pt" viewBox="0 0 797.000000 797.000000"
 preserveAspectRatio="xMidYMid meet">
<metadata>
Created by potrace 1.11, written by Peter Selinger 2001-2013
</metadata>
<g transform="translate(0.000000,797.000000) scale(0.100000,-0.100000)"
fill="#000000" stroke="none">
<path d="M3923 7949 c-82 -41 -395 -372 -570 -604 -170 -226 -350 -534 -432
-741 l-12 -32 -87 35 c-203 79 -500 158 -717 188 -27 4 -59 9 -70 11 -11 2
-47 6 -80 9 -33 3 -69 8 -80 10 -54 10 -251 19 -431 18 -228 0 -261 -8 -298
-73 -19 -31 -20 -53 -20 -265 0 -201 7 -361 19 -437 2 -13 6 -48 9 -78 12
-102 28 -201 57 -335 11 -49 21 -99 24 -110 14 -69 52 -193 96 -317 28 -79 53
-150 55 -158 4 -11 -21 -26 -93 -57 -304 -132 -654 -364 -952 -632 -125 -112
-303 -296 -323 -333 -20 -37 -23 -90 -7 -120 45 -84 393 -411 609 -572 41 -30
80 -59 85 -63 43 -33 135 -93 143 -93 6 0 12 -4 14 -8 10 -23 394 -229 491
-263 20 -7 37 -16 37 -21 0 -4 -13 -40 -29 -80 -56 -143 -144 -450 -165 -579
-3 -19 -12 -72 -20 -119 -8 -47 -18 -112 -21 -145 -3 -33 -8 -71 -10 -85 -12
-71 -19 -249 -19 -445 1 -341 -5 -336 398 -330 133 2 252 6 266 9 14 2 61 7
105 11 44 4 82 8 85 10 3 1 34 6 69 9 184 19 620 128 746 186 11 5 41 17 66
28 l46 19 23 -56 c33 -75 132 -275 167 -333 136 -228 236 -368 418 -587 83
-100 320 -341 381 -388 43 -32 97 -37 143 -13 37 19 216 190 330 315 263 289
526 686 646 975 15 36 31 69 35 74 5 4 56 -10 114 -33 153 -59 433 -137 563
-157 21 -3 56 -9 78 -14 38 -9 154 -24 260 -35 28 -3 70 -8 95 -11 89 -10 543
-12 574 -1 39 13 64 34 84 72 13 25 15 71 16 255 0 203 -4 291 -20 445 -17
166 -60 405 -100 555 -13 52 -26 103 -29 112 -8 36 -88 264 -101 290 -21 41
-17 53 24 68 113 41 366 176 526 282 108 71 230 160 234 170 2 5 10 8 17 8 7
0 15 3 17 8 2 4 43 40 91 81 126 105 176 151 306 281 146 148 165 176 159 235
-6 51 -30 84 -155 210 -350 354 -788 663 -1155 816 -43 17 -78 36 -78 40 0 5
13 41 29 81 59 151 134 409 156 542 3 17 12 63 20 101 13 69 17 97 30 205 4
30 9 66 11 79 11 73 18 261 18 452 0 196 -2 219 -20 250 -35 61 -72 71 -262
72 -156 2 -422 -8 -467 -17 -11 -2 -49 -7 -85 -10 -36 -4 -90 -11 -120 -16
-30 -5 -71 -12 -90 -15 -177 -28 -433 -97 -610 -163 l-129 -49 -15 37 c-8 21
-36 82 -63 136 -184 382 -451 745 -795 1082 -141 139 -181 158 -255 121z m148
-386 c155 -159 280 -312 428 -521 28 -39 51 -74 51 -77 0 -3 19 -35 43 -72
176 -275 322 -667 355 -953 14 -122 6 -509 -13 -620 -30 -178 -49 -273 -71
-342 -32 -105 -75 -218 -83 -218 -3 0 -20 14 -36 32 -48 50 -174 140 -260 185
-89 46 -210 86 -309 104 l-66 11 0 569 c0 620 0 619 -56 655 -34 23 -100 26
-137 7 -15 -8 -37 -28 -47 -46 -19 -31 -20 -54 -20 -608 l0 -577 -67 -12
c-197 -33 -424 -147 -560 -279 -23 -23 -44 -41 -46 -41 -9 0 -70 161 -87 231
-6 21 -15 58 -21 82 -12 48 -13 52 -33 168 -8 47 -18 126 -23 175 -10 115 -10
450 0 534 8 64 55 288 64 302 2 5 6 16 8 25 6 33 67 196 96 262 168 371 398
704 708 1024 47 48 88 87 91 87 3 0 44 -39 91 -87z m-2406 -987 c377 -18 750
-93 1060 -213 50 -20 92 -37 93 -39 2 -1 -6 -43 -17 -92 -28 -117 -38 -174
-46 -247 -4 -33 -9 -76 -11 -95 -7 -50 -5 -323 2 -400 l5 -65 -193 197 c-210
213 -225 224 -302 198 -77 -25 -114 -132 -66 -192 19 -25 133 -143 313 -326
l92 -93 -87 7 c-197 14 -438 10 -558 -11 -145 -24 -173 -30 -245 -49 -32 -8
-60 -14 -61 -13 -6 6 -64 162 -87 232 -46 140 -92 325 -112 445 -3 19 -8 42
-10 50 -2 8 -6 38 -10 65 -3 28 -8 68 -10 90 -18 141 -27 267 -29 428 l-2 122
75 5 c42 3 81 4 86 3 6 -1 60 -4 120 -7z m4909 -108 c-8 -333 -36 -564 -100
-838 -44 -185 -139 -470 -161 -483 -5 -3 -50 6 -101 18 -52 13 -112 26 -135
29 -23 4 -55 9 -72 12 -96 18 -454 25 -547 10 -16 -2 -28 -2 -28 1 0 3 86 89
190 191 196 191 212 213 203 277 -12 81 -101 133 -175 101 -15 -6 -117 -99
-228 -206 -177 -172 -235 -224 -218 -194 15 25 26 420 14 504 -3 19 -8 61 -11
92 -6 62 -23 151 -50 266 -10 40 -16 74 -14 76 12 10 205 81 303 110 112 35
352 88 451 101 28 4 52 9 55 10 3 2 44 7 90 11 47 3 105 9 130 13 25 3 126 8
226 9 l181 4 -3 -114z m-4104 -1512 c108 -8 147 -13 292 -36 l76 -12 32 -92
c17 -50 53 -137 80 -193 l48 -102 -38 -90 c-36 -82 -69 -193 -84 -281 l-6 -35
-579 0 -578 -1 -36 -27 c-73 -55 -68 -163 10 -214 25 -17 71 -18 588 -20 659
-2 607 -1 601 -11 -13 -22 53 -251 100 -344 l25 -50 -34 -67 c-19 -36 -51
-111 -72 -166 -20 -55 -41 -112 -47 -127 -10 -28 -14 -29 -123 -47 -58 -10
-79 -12 -225 -27 -100 -10 -346 -12 -428 -3 -114 12 -183 24 -267 45 -421 107
-861 350 -1240 686 -16 14 -41 36 -55 48 -14 12 -65 60 -114 108 l-88 86 103
101 c423 411 918 706 1375 820 148 37 179 42 319 51 55 4 101 8 102 9 4 3 174
-3 263 -9z m3420 0 c102 -11 144 -17 210 -33 36 -8 74 -17 84 -19 55 -11 230
-71 324 -110 362 -154 718 -399 1055 -724 l88 -85 -49 -50 c-135 -138 -324
-298 -505 -427 -394 -282 -817 -458 -1190 -495 -93 -9 -313 -9 -447 1 -115 8
-331 42 -341 54 -3 4 -21 50 -38 102 -18 52 -53 136 -77 186 l-44 90 34 75
c48 104 89 248 87 307 -1 16 5 22 22 23 12 0 267 1 567 1 315 0 558 4 576 9
42 13 74 49 85 96 7 31 4 46 -14 83 -38 77 -10 74 -654 75 l-573 0 -11 55
c-23 119 -59 229 -101 314 l-19 38 39 82 c57 115 69 145 93 223 11 37 24 71
27 75 17 16 245 46 422 54 69 4 126 8 128 9 4 3 162 -3 222 -9z m-1755 -131
c22 -4 48 -11 58 -16 9 -5 17 -7 17 -4 0 7 94 -31 162 -65 230 -117 401 -349
448 -610 11 -63 14 -225 5 -275 -36 -189 -113 -341 -239 -469 -157 -161 -355
-246 -576 -249 -170 -3 -262 15 -388 74 -484 226 -645 833 -335 1267 138 194
365 329 598 355 44 5 203 0 250 -8z m-782 -1764 c102 -70 282 -147 388 -167
24 -4 47 -9 52 -10 4 -1 18 -2 32 -3 l25 -1 2 -590 3 -590 32 -31 c24 -25 42
-33 80 -36 58 -5 89 10 120 56 l23 34 0 576 0 577 68 12 c202 34 405 136 561
281 24 23 45 40 46 39 40 -64 127 -371 141 -500 3 -29 7 -58 9 -65 18 -56 27
-502 13 -616 -34 -261 -133 -553 -283 -826 -147 -270 -365 -562 -596 -798
l-90 -92 -61 62 c-436 445 -732 929 -853 1392 -48 184 -62 295 -62 490 0 345
44 624 134 862 l35 92 68 -58 c37 -32 88 -72 113 -90z m-1549 -271 c193 -40
290 -49 513 -45 106 2 197 6 203 10 38 23 -14 -33 -185 -200 -107 -105 -196
-198 -196 -208 -1 -9 -2 -27 -3 -39 -7 -90 93 -160 177 -124 18 7 86 66 152
131 66 64 160 156 209 203 49 48 86 82 83 76 -8 -13 -18 -216 -19 -354 0 -97
7 -200 17 -260 3 -14 7 -45 10 -70 3 -25 17 -91 30 -148 14 -57 25 -107 25
-112 0 -9 -121 -58 -225 -92 -222 -71 -414 -113 -660 -143 -22 -3 -56 -7 -75
-10 -67 -9 -235 -18 -355 -19 l-120 -1 1 110 c3 441 83 887 226 1251 31 81 32
82 61 73 16 -4 75 -18 131 -29z m4554 -73 c63 -161 134 -420 156 -567 3 -19
12 -78 20 -130 27 -172 53 -586 39 -626 -5 -15 -330 -7 -473 11 -19 2 -57 7
-85 10 -154 18 -448 77 -540 109 -22 7 -60 19 -85 27 -94 27 -250 91 -250 102
0 7 7 37 15 67 18 66 51 259 60 350 8 80 7 296 -1 397 l-7 76 196 -199 195
-199 61 0 c55 0 64 3 92 31 38 39 50 105 26 150 -9 16 -94 108 -189 205 -95
97 -184 189 -198 204 l-25 27 50 -7 c75 -11 442 -14 500 -5 28 4 75 11 105 14
60 7 270 53 278 61 11 11 22 -10 60 -108z"/>
</g>
</svg>
